HIERARCHY
ROOT Hips
{
	OFFSET 0.000000 0.000000 0.000000 
	CHANNELS 6 Xposition Yposition Zposition Yrotation Zrotation Xrotation 
	JOINT Lumbar
	{
		OFFSET 0.000000 0.000000 0.000000 
		CHANNELS 3 Zrotation Xrotation Yrotation
		JOINT Neck
		{
			OFFSET 0.000000 0.445665 0.000000 
			CHANNELS 3 Zrotation Xrotation Yrotation
			End Site
			{
				OFFSET 0.000000 0.227535 0.000000 
			}
		}
		JOINT RightShoulder
		{
			OFFSET 0.019635 0.377685 0.194865 
			CHANNELS 3 Zrotation Xrotation Yrotation
			JOINT RightElbow
			{
				OFFSET 0.000000 -0.243375 0.000000 
				CHANNELS 2 Zrotation Yrotation
				JOINT RightWrist
				{
					OFFSET 0.000000 -0.264825 0.000000 
					CHANNELS 2 Zrotation Xrotation
					End Site
					{
						OFFSET 0.006600 -0.176220 0.000990 
					}
				}
			}
		}
		JOINT LeftShoulder
		{
			OFFSET 0.019635 0.377685 -0.194865 
			CHANNELS 3 Zrotation Xrotation Yrotation
			JOINT LeftElbow
			{
				OFFSET 0.000000 -0.243375 0.000000 
				CHANNELS 2 Zrotation Yrotation
				JOINT LeftWrist
				{
					OFFSET 0.000000 -0.264825 0.000000 
					CHANNELS 2 Zrotation Xrotation
					End Site
					{
						OFFSET 0.006600 -0.176220 -0.000990 
					}
				}
			}
		}
	}
	JOINT RightHip
	{
		OFFSET 0.052140 -0.069960 0.075570 
		CHANNELS 3 Zrotation Xrotation Yrotation
		JOINT RightKnee
		{
			OFFSET 0.000000 -0.402270 0.000000 
			CHANNELS 1 Zrotation
			JOINT RightAnkle
			{
				OFFSET 0.000000 -0.404085 0.000000 
				CHANNELS 3 Zrotation Xrotation Yrotation
				End Site
				{
					OFFSET 0.204105 -0.089430 0.008415 
				}
			}
		}
	}
	JOINT LeftHip
	{
		OFFSET 0.052140 -0.069960 -0.075570 
		CHANNELS 3 Zrotation Xrotation Yrotation
		JOINT LeftKnee
		{
			OFFSET 0.000000 -0.402270 0.000000 
			CHANNELS 1 Zrotation
			JOINT LeftAnkle
			{
				OFFSET 0.000000 -0.404085 0.000000 
				CHANNELS 3 Zrotation Xrotation Yrotation
				End Site
				{
					OFFSET 0.204105 -0.089430 -0.008415 
				}
			}
		}
	}
}
MOTION
Frames: 16
Frame Time: 0.02
0.00035 6e-05 -0.00013 22.10486 -24.90369 -6.9094 43.81322 2.76623 -2.23345 -15.15879 -0.47234 -1.15491 90.3692 -92.87144 -87.13387 5.78711 69.28337 -13.46381 1.19873 68.34267 100.04016 -55.63192 5.79085 -101.94674 11.76127 -1.71157 40.99418 -5.16869 -6.62427 -22.50777 -6.89119 -2.38916 -3.3741 44.7438 8.9122 0.95882 -27.8295 -6.56461 2.17717 3.28449
0.00041 7e-05 -0.00016 22.10244 -24.89358 -6.9102 43.80667 2.76811 -2.2292 -15.15917 -0.47502 -1.1552 90.58539 -92.85695 -87.1339 5.78711 69.33681 -13.45019 1.1692 68.47437 100.02875 -55.63192 5.7908 -101.96519 11.77251 -1.72436 40.97236 -5.2022 -6.80865 -22.50741 -6.88717 -2.3638 -3.36437 44.72531 8.94711 1.09088 -27.83071 -6.563 2.16861 3.27992
0.00047 7e-05 -0.00018 22.10004 -24.88351 -6.911 43.80014 2.76997 -2.22496 -15.15955 -0.47769 -1.15549 90.80103 -92.84253 -87.13392 5.78711 69.39007 -13.43659 1.13974 68.6058 100.01736 -55.63193 5.79075 -101.98361 11.7837 -1.73712 40.95061 -5.2356 -6.99233 -22.50706 -6.88317 -2.33852 -3.35467 44.70688 8.98194 1.22272 -27.83191 -6.5614 2.16004 3.27536
0.00053 8e-05 -0.00021 22.09764 -24.87343 -6.91181 43.79361 2.77185 -2.22072 -15.15993 -0.48036 -1.15578 91.01657 -92.82809 -87.13394 5.78711 69.44334 -13.42301 1.1103 68.73712 100.00599 -55.63193 5.79069 -102.002 11.7949 -1.74987 40.92886 -5.26901 -7.1761 -22.50671 -6.87916 -2.31324 -3.34496 44.68844 9.01674 1.3544 -27.83312 -6.5598 2.1515 3.2708
0.00058 8e-05 -0.00023 22.09521 -24.86331 -6.91262 43.78705 2.77373 -2.21647 -15.16031 -0.48304 -1.15607 91.23264 -92.81358 -87.13396 5.78711 69.49679 -13.40939 1.08081 68.86867 99.99459 -55.63193 5.79064 -102.0204 11.80614 -1.76264 40.90704 -5.30254 -7.36064 -22.50634 -6.87515 -2.28788 -3.33522 44.66996 9.0516 1.48622 -27.83432 -6.5582 2.14297 3.26624
0.00064 8e-05 -0.00026 22.09287 -24.85333 -6.91339 43.78058 2.77556 -2.21222 -15.16068 -0.4857 -1.15636 91.44735 -92.79937 -87.13398 5.78711 69.54963 -13.39585 1.0514 68.99983 99.98322 -55.63194 5.79058 -102.03885 11.81723 -1.77538 40.88545 -5.33566 -7.54253 -22.50602 -6.87117 -2.26278 -3.32561 44.65163 9.08639 1.61812 -27.83552 -6.55659 2.13433 3.26165
0.0007 9e-05 -0.00028 22.09037 -24.84309 -6.91424 43.77395 2.7775 -2.20799 -15.16106 -0.4884 -1.15666 91.66453 -92.78456 -87.134 5.78711 69.60365 -13.38216 1.02186 69.13161 99.97182 -55.63194 5.79054 -102.05719 11.8286 -1.78818 40.86341 -5.36956 -7.72947 -22.5056 -6.86713 -2.23717 -3.31575 44.63302 9.12127 1.7497 -27.83674 -6.55499 2.12591 3.25713
0.00076 9e-05 -0.00031 22.088 -24.83309 -6.91503 43.76747 2.77934 -2.20374 -15.16144 -0.49105 -1.15695 91.87949 -92.77029 -87.13402 5.78711 69.65659 -13.36861 0.99244 69.26287 99.96046 -55.63195 5.79048 -102.07564 11.83973 -1.80093 40.84178 -5.40276 -7.91188 -22.50527 -6.86314 -2.21203 -3.30612 44.61466 9.15607 1.88157 -27.83794 -6.55339 2.1173 3.25255
0.00081 0.0001 -0.00033 22.08583 -24.82338 -6.91569 43.76115 2.78104 -2.19944 -15.16181 -0.49368 -1.15723 92.09162 -92.75672 -87.13405 5.78711 69.70817 -13.35523 0.96317 69.39335 99.94909 -55.63196 5.79041 -102.0942 11.8505 -1.81358 40.82066 -5.43504 -8.08831 -22.50509 -6.85921 -2.18748 -3.29678 44.59661 9.19076 2.01391 -27.8391 -6.55178 2.1084 3.24786
0.00087 0.0001 -0.00036 22.08263 -24.81198 -6.91694 43.75385 2.78351 -2.19539 -15.16221 -0.49653 -1.15755 92.31968 -92.73925 -87.13406 5.78711 69.76747 -13.34087 0.93302 69.52791 99.93757 -55.63193 5.79041 -102.11206 11.86317 -1.82668 40.79667 -5.47244 -8.29783 -22.50418 -6.85492 -2.1596 -3.2858 44.5768 9.22608 2.14391 -27.84045 -6.5502 2.10102 3.24372
0.00093 0.00011 -0.00039 22.08154 -24.80414 -6.91701 43.74864 2.78438 -2.19083 -15.16257 -0.49889 -1.1578 92.51433 -92.72994 -87.13409 5.78711 69.81054 -13.3286 0.90475 69.65409 99.92649 -55.63199 5.79027 -102.13144 11.87192 -1.83891 40.77867 -5.49913 -8.43836 -22.50472 -6.8514 -2.13871 -3.27824 44.56069 9.26007 2.27858 -27.8414 -6.54857 2.09051 3.23845
0.00098 0.00011 -0.00044 22.08676 -24.80611 -6.9134 43.74912 2.78063 -2.18464 -15.16271 -0.50007 -1.15789 92.6148 -92.7437 -87.13416 5.78711 69.80823 -13.32199 0.88149 69.7551 99.91548 -55.63236 5.7897 -102.15452 11.86901 -1.84799 40.77775 -5.49531 -8.38084 -22.5099 -6.85 -2.13745 -3.28044 44.5549 9.29048 2.4285 -27.84119 -6.54677 2.07063 3.22975
0.00103 0.0001 -0.00051 22.094 -24.81163 -6.90867 43.75172 2.77531 -2.17797 -15.16285 -0.50073 -1.15791 92.68208 -92.76555 -87.13424 5.78711 69.78979 -13.31749 0.86017 69.84799 99.90509 -55.63282 5.78899 -102.17919 11.86228 -1.85626 40.78274 -5.48093 -8.25558 -22.51643 -6.84937 -2.14314 -3.28601 44.55281 9.31953 2.58261 -27.84057 -6.54494 2.04775 3.21996
0.00108 0.0001 -0.00057 22.09996 -24.81548 -6.90475 43.75339 2.77088 -2.17168 -15.16307 -0.50153 -1.15797 92.76632 -92.78324 -87.13431 5.78711 69.77931 -13.31207 0.83803 69.94617 99.89516 -55.63322 5.78838 -102.20344 11.85793 -1.86547 40.7846 -5.47211 -8.16712 -22.52191 -6.84837 -2.14537 -3.28978 44.54893 9.34918 2.7333 -27.84017 -6.54315 2.02676 3.21087
0.00113 9e-05 -0.00063 22.10742 -24.81958 -6.89958 43.75493 2.76572 -2.16477 -15.16294 -0.50274 -1.15803 92.84303 -92.80291 -87.13439 5.78711 69.76614 -13.30649 0.81555 70.03805 99.88217 -55.63372 5.78763 -102.22649 11.85105 -1.87254 40.78831 -5.46007 -8.05343 -22.52921 -6.84743 -2.14889 -3.29467 44.54551 9.379 2.89064 -27.83963 -6.54124 2.00357 3.20093
0.00118 9e-05 -0.0007 22.11225 -24.824 -6.89671 43.75723 2.76168 -2.15895 -15.16354 -0.50298 -1.15806 92.927 -92.82046 -87.13446 5.78711 69.75474 -13.30175 0.79434 70.1405 99.87562 -55.63402 5.78715 -102.25231 11.8483 -1.88356 40.78963 -5.4522 -7.97586 -22.53308 -6.84656 -2.15137 -3.29804 44.54204 9.40803 3.03481 -27.83928 -6.53958 1.98421 3.19248
